<?xml version="1.0" encoding="UTF-8"?>
<svg version="1.1" xmlns="http://www.w3.org/2000/svg" width="500" height="500">
<path d="M0 0 C165 0 330 0 500 0 C500 165 500 330 500 500 C335 500 170 500 0 500 C0 335 0 170 0 0 Z " fill="#D9291C" transform="translate(0,0)"/>
<path d="M0 0 C165 0 330 0 500 0 C500 95.7 500 191.4 500 290 C499.67 290 499.34 290 499 290 C498.90203125 288.69289063 498.8040625 287.38578125 498.703125 286.0390625 C495.43724662 245.70793583 480.31714848 206.96370742 454 176 C453.28714844 175.15824219 452.57429688 174.31648437 451.83984375 173.44921875 C449.61491454 170.90822483 447.32692352 168.44808033 445 166 C444.4745459 165.44199707 443.9490918 164.88399414 443.40771484 164.30908203 C422.39397192 142.12758129 396.6853998 126.37527343 368 116 C367.30100586 115.74476562 366.60201172 115.48953125 365.88183594 115.2265625 C316.74193861 97.61900727 262.57679483 102.52297617 215.6875 124.125 C199.26537477 131.94418615 184.71241141 142.11183925 171 154 C170.45843262 154.46712402 169.91686523 154.93424805 169.35888672 155.41552734 C163.41824482 160.57406269 157.97686038 165.91268396 153 172 C152.09765625 173.06640625 151.1953125 174.1328125 150.29296875 175.19921875 C142.48596082 184.55615675 136.05958209 194.4420382 130 205 C129.62891113 205.63373535 129.25782227 206.2674707 128.87548828 206.92041016 C107.56246863 243.50333876 100.82184311 287.3252884 106.74243164 328.95166016 C106.92458724 330.40027202 107.06564126 331.85432964 107.17749023 333.31005859 C107.69562886 340.03852547 109.23464692 346.17689038 111.1875 352.625 C111.50211182 353.67751953 111.81672363 354.73003906 112.14086914 355.81445312 C116.52289324 370.26287137 121.90287615 383.67325445 129 397 C129.31163086 397.59522461 129.62326172 398.19044922 129.94433594 398.80371094 C138.99487408 415.97579019 151.32922357 430.35145248 165 444 C165.5878125 444.62261719 166.175625 445.24523437 166.78125 445.88671875 C197.91994947 478.51158343 244.02080182 495.00666779 288 499 C288 499.33 288 499.66 288 500 C192.96 500 97.92 500 0 500 C0 335 0 170 0 0 Z " fill="#006646" transform="translate(0,0)"/>
<path d="M0 0 C97.94433781 0 97.94433781 0 111.25 12.03515625 C119.78931281 20.93550618 122.46994455 31.12553634 122.33203125 43.19921875 C121.3592845 54.33430807 116.14137393 62.588345 108 70 C106.05014798 71.45124121 104.06299149 72.71063032 102 74 C101.505 75.485 101.505 75.485 101 77 C101.61746094 77.14695312 102.23492187 77.29390625 102.87109375 77.4453125 C113.2592676 80.19651836 122.7840161 86.06655168 128.47265625 95.421875 C132.43927437 103.05443465 134.37585762 110.10759214 134.3125 118.6875 C134.30512817 119.87279297 134.30512817 119.87279297 134.29760742 121.08203125 C134.05005204 133.55374442 130.45992313 145.9849169 121.8515625 155.34375 C106.05258103 169.47617225 87.71659706 170.30944879 67.67578125 170.1953125 C65.9395765 170.19236608 64.20336997 170.19032933 62.46716309 170.18920898 C56.08224802 170.17879107 49.69737116 170.15086868 43.3125 170.125 C29.019375 170.08375 14.72625 170.0425 0 170 C0 113.9 0 57.8 0 0 Z " fill="#FEFCFC" transform="translate(168,221)"/>
<path d="M0 0 C3.27344033 2.66989977 5.84873218 5.76483786 8.5 9.0390625 C8.08637207 9.59891846 7.67274414 10.15877441 7.24658203 10.7355957 C5.37200518 13.27372327 3.49849127 15.81263353 1.625 18.3515625 C0.97402344 19.23263672 0.32304687 20.11371094 -0.34765625 21.02148438 C-0.97285156 21.86904297 -1.59804688 22.71660156 -2.2421875 23.58984375 C-2.8182373 24.37012939 -3.39428711 25.15041504 -3.98779297 25.9543457 C-5.19732002 27.62179025 -6.35735435 29.32509402 -7.5 31.0390625 C-9.90234375 31.42578125 -9.90234375 31.42578125 -12.5 31.0390625 C-14.31640625 29.68359375 -14.31640625 29.68359375 -16.0625 27.8515625 C-26.38128681 18.2517872 -41.01760843 16.33463862 -54.58203125 16.73046875 C-61.98823353 17.31380871 -68.09893939 18.98603648 -73.125 24.6640625 C-76.72183439 29.4251901 -77.03726651 33.14902969 -76.5 39.0390625 C-74.77751167 44.01513991 -71.98895837 47.33199391 -67.5 50.0390625 C-60.08819234 53.30084796 -52.56278149 54.9629377 -44.625 56.3515625 C-12.3261956 62.46025467 -12.3261956 62.46025467 -0.5 73.0390625 C0.12519531 73.53535156 0.75039063 74.03164063 1.39453125 74.54296875 C7.81174593 80.12133183 12.80603145 89.6852717 14.5 98.0390625 C14.72013187 101.43205312 14.68513763 104.82711146 14.6875 108.2265625 C14.69974609 109.13470703 14.71199219 110.04285156 14.72460938 110.97851562 C14.75254107 123.98537604 11.12453462 135.65743821 2.3125 145.4765625 C-13.01503572 159.4416506 -28.36949322 162.44153791 -48.75 162.4140625 C-49.43287079 162.41351868 -50.11574158 162.41297485 -50.81930542 162.41241455 C-61.28536535 162.37411269 -70.63939849 161.71667612 -80.5 158.0390625 C-81.68851562 157.6265625 -82.87703125 157.2140625 -84.1015625 156.7890625 C-97.30409438 151.72665376 -107.35616281 143.60281923 -115.5 132.0390625 C-113.82324278 128.0089618 -111.02490704 124.97339561 -108.1875 121.7265625 C-105.1060376 118.16918702 -102.13715386 114.67760365 -99.5625 110.7265625 C-98.881875 109.8396875 -98.20125 108.9528125 -97.5 108.0390625 C-96.18 108.0390625 -94.86 108.0390625 -93.5 108.0390625 C-91.9296875 109.7265625 -91.9296875 109.7265625 -90.375 112.0390625 C-82.44540272 122.76932605 -71.37807455 128.99393446 -58.5 132.0390625 C-55.39047898 132.33198587 -52.30937248 132.37304542 -49.1875 132.3515625 C-48.34807861 132.34664795 -47.50865723 132.3417334 -46.64379883 132.33666992 C-39.06534562 132.19343077 -32.32503683 131.37251337 -26.0625 126.7890625 C-20.84933061 121.19444169 -19.92310435 116.15812746 -20.1484375 108.69140625 C-20.81820565 103.63837766 -22.95153024 100.46234842 -26.72265625 96.99609375 C-29.86319776 94.78313834 -32.573484 93.77648472 -36.25 92.6640625 C-36.92393799 92.45910156 -37.59787598 92.25414062 -38.29223633 92.04296875 C-44.85862369 90.10617804 -51.52183918 88.59004483 -58.1875 87.0390625 C-75.69185944 82.94287854 -93.71009233 77.5856035 -104.06640625 61.625 C-110.79364285 48.97377893 -112.74269557 35.15161009 -108.9375 21.2265625 C-104.27955609 7.90647727 -95.29730923 -0.51947645 -82.86083984 -6.60473633 C-57.32365584 -18.49722017 -23.4752582 -14.89211692 0 0 Z " fill="#FEFCFC" transform="translate(433.5,230.9609375)"/>
<path d="M0 0 C0.33 0 0.66 0 1 0 C1 60.06 1 120.12 1 182 C-60.38 182 -121.76 182 -185 182 C-185 181.67 -185 181.34 -185 181 C-183.82308594 180.91363281 -182.64617187 180.82726562 -181.43359375 180.73828125 C-128.33898888 176.40837363 -80.44618484 151.19446014 -45.43164062 111.20898438 C-42.42942463 107.60547829 -39.68833429 103.84445733 -37 100 C-36.5870166 99.41541016 -36.1740332 98.83082031 -35.74853516 98.22851562 C-25.09302879 83.06506536 -17.51271181 67.32585776 -11 50 C-10.525625 48.78054688 -10.05125 47.56109375 -9.5625 46.3046875 C-4.19896787 31.58849621 -1.5065934 15.5572145 0 0 Z " fill="#016646" transform="translate(499,318)"/>
<path d="M0 0 C7.21875 -0.061875 14.4375 -0.12375 21.875 -0.1875 C25.26241455 -0.22846802 25.26241455 -0.22846802 28.71826172 -0.27026367 C30.53873157 -0.27903797 32.35920737 -0.28667967 34.1796875 -0.29296875 C35.10015869 -0.30831665 36.02062988 -0.32366455 36.96899414 -0.33947754 C46.27325538 -0.3431746 54.54822337 1.39376059 61.37109375 7.99609375 C66.70302393 14.55551865 66.78757255 22.89771253 66 31 C64.83001858 37.01316033 62.9415853 41.15654477 58 45 C52.91137618 47.93765954 48.29963002 50.12948962 42.3449707 50.11352539 C41.39110474 50.11340454 40.43723877 50.11328369 39.45446777 50.11315918 C37.95526794 50.10548523 37.95526794 50.10548523 36.42578125 50.09765625 C35.50486694 50.09664917 34.58395264 50.09564209 33.63513184 50.09460449 C30.1942419 50.08937152 26.7533697 50.07541026 23.3125 50.0625 C15.619375 50.041875 7.92625 50.02125 0 50 C0 33.5 0 17 0 0 Z " fill="#DA291C" transform="translate(202,314)"/>
<path d="M0 0 C9.0646875 -0.12375 9.0646875 -0.12375 18.3125 -0.25 C20.19622314 -0.28641602 22.07994629 -0.32283203 24.02075195 -0.36035156 C44.29643173 -0.58884709 44.29643173 -0.58884709 51.5625 6.5 C52.036875 7.325 52.51125 8.15 53 9 C53.35191406 9.53882813 53.70382813 10.07765625 54.06640625 10.6328125 C55.45534262 14.15455075 55.36858994 17.64434383 55.375 21.375 C55.39949219 22.1175 55.42398438 22.86 55.44921875 23.625 C55.47719822 28.90379394 54.39315321 31.76651617 51 36 C50.443125 36.721875 49.88625 37.44375 49.3125 38.1875 C43.36303647 42.85059304 36.11920275 43.43785 28.80859375 43.29296875 C27.70167175 43.28843689 27.70167175 43.28843689 26.5723877 43.28381348 C23.86061268 43.26831921 21.14903971 43.22643811 18.4375 43.1875 C12.353125 43.125625 6.26875 43.06375 0 43 C0 28.81 0 14.62 0 0 Z " fill="#DA2B1E" transform="translate(202,246)"/>
</svg>
